# xmcd
#
# Track frame offsets:
# 150
# 26370
# 49852
# 71502
# 97257
# 118195
# 134027
# 156712
# 182107
# 192965
# 213585
# 242157
#
# Disc length: 3649 seconds
#
# Revision: 1
# Processed by: cddbd v1.5.1PL0 Copyright (c) Steve Scherf et al.
# Submitted via: Easy CD Ripper v2.27
#
DISCID=be0e3f0c
DTITLE=James Solberg - Real Time
DYEAR=2004
DGENRE=Blues
TTITLE0=It's Alright
TTITLE1=Real Time
TTITLE2=Let The Teardrops Fall
TTITLE3=Secondhand Smoke
TTITLE4=I Like Lovin' You
TTITLE5=Champaign Dreams
TTITLE6=Everybody Wants To Go To Heaven
TTITLE7=Fightin' all 'Round The World
TTITLE8=Rockin' The Cradle
TTITLE9=Ever Seen A Rainbow
TTITLE10=Down, Down, Down
TTITLE11=Gotta Play My Blues
EXTD=
EXTT0=
EXTT1=
EXTT2=
EXTT3=
EXTT4=
EXTT5=
EXTT6=
EXTT7=
EXTT8=
EXTT9=
EXTT10=
EXTT11=
PLAYORDER=
